<svg xmlns="http://www.w3.org/2000/svg" viewBox="0 0 920 220" fill="none">
  <defs>
    <linearGradient id="rat" x1="0%" y1="0%" x2="100%" y2="100%">
      <stop offset="0%" stop-color="#40c4ff" />
      <stop offset="60%" stop-color="#00e676" />
      <stop offset="100%" stop-color="#a8e063" />
    </linearGradient>
    <linearGradient id="dna" x1="0%" y1="0%" x2="0%" y2="100%">
      <stop offset="0%" stop-color="#00e676" />
      <stop offset="100%" stop-color="#a8e063" />
    </linearGradient>
    <filter id="glow" x="-30%" y="-30%" width="160%" height="160%">
      <feGaussianBlur stdDeviation="1.8" result="blur" />
      <feMerge>
        <feMergeNode in="blur" />
        <feMergeNode in="SourceGraphic" />
      </feMerge>
    </filter>
    <style>
      .brand {
        font-family: Inter, Arial, sans-serif;
        font-size: 108px;
        font-weight: 800;
        letter-spacing: -3px;
      }
      .tagline {
        font-family: Inter, Arial, sans-serif;
        font-size: 46px;
        font-style: italic;
        font-weight: 700;
      }
      .subline {
        font-family: Inter, Arial, sans-serif;
        font-size: 26px;
        font-weight: 500;
      }
    </style>
  </defs>

  <g transform="translate(10 8) scale(2.05)">
    <path
      d="M50 8 C18 8, 4 28, 4 55 C4 76, 18 92, 42 95 C57 98, 78 91, 88 76 C98 61, 95 36, 82 22"
      stroke="url(#rat)"
      stroke-width="3.8"
      stroke-linecap="round"
      filter="url(#glow)"
    />
    <ellipse cx="82" cy="18" rx="14" ry="11" fill="#050810" fill-opacity="0.92" stroke="url(#rat)" stroke-width="3.4" />
    <ellipse cx="74" cy="9" rx="6" ry="7" fill="#050810" fill-opacity="0.92" stroke="url(#rat)" stroke-width="3" />
    <ellipse cx="74" cy="9" rx="3" ry="4" fill="#00e676" fill-opacity="0.18" />
    <circle cx="87" cy="15" r="2.8" fill="#40c4ff" filter="url(#glow)" />
    <circle cx="87" cy="15" r="1.1" fill="#ffffff" />
    <circle cx="95" cy="21" r="2" fill="#00e676" filter="url(#glow)" />
    <line x1="96" y1="19.5" x2="100" y2="16" stroke="#40c4ff" stroke-width="0.9" opacity="0.7" stroke-linecap="round" />
    <line x1="96" y1="21" x2="100" y2="21" stroke="#40c4ff" stroke-width="0.9" opacity="0.7" stroke-linecap="round" />
    <line x1="96" y1="22.5" x2="100" y2="26" stroke="#40c4ff" stroke-width="0.9" opacity="0.7" stroke-linecap="round" />
    <path
      d="M42 95 C30 100, 13 96, 6 88"
      stroke="url(#rat)"
      stroke-width="3"
      stroke-linecap="round"
      filter="url(#glow)"
    />
    <path
      d="M34 28 Q43 39, 34 50 Q25 61, 34 72"
      stroke="url(#dna)"
      stroke-width="2.4"
      stroke-linecap="round"
      filter="url(#glow)"
    />
    <path
      d="M56 28 Q47 39, 56 50 Q65 61, 56 72"
      stroke="url(#dna)"
      stroke-width="2.4"
      stroke-linecap="round"
      filter="url(#glow)"
    />
    <line x1="34.5" y1="33" x2="55.5" y2="33" stroke="#00e676" stroke-width="1.8" opacity="0.85" stroke-linecap="round" />
    <line x1="27" y1="43.5" x2="63" y2="43.5" stroke="#00e676" stroke-width="1.8" opacity="0.85" stroke-linecap="round" />
    <line x1="27" y1="56.5" x2="63" y2="56.5" stroke="#a8e063" stroke-width="1.8" opacity="0.85" stroke-linecap="round" />
    <line x1="34.5" y1="67" x2="55.5" y2="67" stroke="#a8e063" stroke-width="1.8" opacity="0.85" stroke-linecap="round" />
    <circle cx="34.5" cy="33" r="1.8" fill="#00e676" />
    <circle cx="55.5" cy="33" r="1.8" fill="#00e676" />
    <circle cx="27" cy="43.5" r="1.8" fill="#40c4ff" />
    <circle cx="63" cy="43.5" r="1.8" fill="#40c4ff" />
    <circle cx="27" cy="56.5" r="1.8" fill="#40c4ff" />
    <circle cx="63" cy="56.5" r="1.8" fill="#40c4ff" />
    <circle cx="34.5" cy="67" r="1.8" fill="#a8e063" />
    <circle cx="55.5" cy="67" r="1.8" fill="#a8e063" />
  </g>

  <text x="245" y="108" class="brand">
    <tspan fill="#0b5ea8">Gen</tspan><tspan fill="#a8e063">E</tspan><tspan fill="#0b5ea8">Rats</tspan>
  </text>
  <text x="265" y="164" class="tagline">
    <tspan fill="#0b5ea8">Genetically </tspan><tspan fill="#a8e063">Evolving </tspan><tspan fill="#0b5ea8">Rats</tspan>
  </text>
  <text x="268" y="202" class="subline" fill="#315d86">Colony management &amp; genetic optimization system</text>
</svg>
